PathFileType	4	(X/Y/Z)	Walk6.trc
DataRate	CameraRate	NumFrames	NumMarkers	Units	OrigDataRate	OrigDataStartFrame	OrigNumFrames
200.000000	200.000000	9	59	mm	200.000000	278	554
Frame#	Times		C7		CLAV		STRN		RBack		LASI		RASI		RACR1		RUA1		RElbow		RFA1		RWRR		RWRU		RCAR		LACR1		LFA1		LWRU		LCAR		RTH1		RTH3		RTH2		RTH4		RLFC		LTH1		LTH3		LTH2		LTH4		LLFC		LTB1		LTB3		LTB2		LTB4		LMMAL		LMT1		LToe		LFHD		RFHD		T10		LMT5		LPSI		RPSI		LLMAL		RBHD		RTB1		LUA1		LBHD		RTB2		RTB3		RToe		RTB4		LCAL		RElbowM		RCAL		RMT1		LElbow		LElbowM		LWRR		RLMAL		RMT5		RMMAL
			X1	Y1	Z1	X2	Y2	Z2	X3	Y3	Z3	X4	Y4	Z4	X5	Y5	Z5	X6	Y6	Z6	X7	Y7	Z7	X8	Y8	Z8	X9	Y9	Z9	X10	Y10	Z10	X11	Y11	Z11	X12	Y12	Z12	X13	Y13	Z13	X14	Y14	Z14	X15	Y15	Z15	X16	Y16	Z16	X17	Y17	Z17	X18	Y18	Z18	X19	Y19	Z19	X20	Y20	Z20	X21	Y21	Z21	X22	Y22	Z22	X23	Y23	Z23	X24	Y24	Z24	X25	Y25	Z25	X26	Y26	Z26	X27	Y27	Z27	X28	Y28	Z28	X29	Y29	Z29	X30	Y30	Z30	X31	Y31	Z31	X32	Y32	Z32	X33	Y33	Z33	X34	Y34	Z34	X35	Y35	Z35	X36	Y36	Z36	X37	Y37	Z37	X38	Y38	Z38	X39	Y39	Z39	X40	Y40	Z40	X41	Y41	Z41	X42	Y42	Z42	X43	Y43	Z43	X44	Y44	Z44	X45	Y45	Z45	X46	Y46	Z46	X47	Y47	Z47	X48	Y48	Z48	X49	Y49	Z49	X50	Y50	Z50	X51	Y51	Z51	X52	Y52	Z52	X53	Y53	Z53	X54	Y54	Z54	X55	Y55	Z55	X56	Y56	Z56	X57	Y57	Z57	X58	Y58	Z58	X59	Y59	Z59

278	1.39	-571.1	1412.9	-43.717	-445.05	1337.2	-48.781	-366.27	1112.5	-39.837	-611.28	1310.5	57.244	-415.68	933.49	-158.33	-422.8	935.1	103.31	-491.93	1351.5	125	-514.81	1141.3	190.71	-537.35	1034.7	214.62	-460.18	899.71	217.72	-424.45	801.94	175.84	-474.72	787.73	228.16	-422.65	754.96	224.41	-508.49	1344	-217.75	-554.69	894.94	-280.41	-608.92	784.2	-291.09	-570.59	732.45	-286.21	-506.33	730.41	143.36	-487.71	543.68	115.97	-431.57	650.54	103.01	-497.9	637	127.73	-494.21	450.61	102.5	-488.53	736.38	-198.66	-439.19	561.63	-155.15	-396.1	667.65	-147.24	-464.53	644.81	-176.21	-421.53	454.59	-139.14	-395.03	358.7	-55.215	-419.17	172.81	-49.659	-426.45	265.71	-124.19	-405.88	263.78	-55.913	-450.71	73.624	-13.928	-318.66	37.908	-56.851	-273.21	30.337	-84.543	-414.26	1581.9	-84.631	-405.72	1586.7	-12.034	-604.03	1130	-33.309	-359.37	23.986	-132.58	-634.48	971.45	-83.654	-636.43	970.5	32.284	-465.53	61.085	-94.696	-573.34	1541.2	30.791	-549.1	342.25	36.274	-549.31	1137.4	-257.39	-582.99	1544	-96.095	-635.62	312.12	105.83	-708.81	248.56	36.218	-757.66	43.396	53.219	-629.53	295.89	36.116	-515.91	29.183	-40.926	-549.96	1013	131.42	-867.83	242.75	36.187	-771.58	74.611	24.741	-583.66	1022	-263.07	-599.6	1012	-194.03	-554.99	774.72	-244.34	-822.29	220.1	84.741	-819.14	86.746	92.261	-793.12	214.47	8.7618
279	1.395	-565.64	1413.8	-43.929	-439.65	1338.1	-49.027	-360.89	1113.3	-40.086	-605.95	1311.3	56.783	-410.76	934.17	-159.06	-417.41	936.19	103.33	-486.7	1352.1	124.85	-510.27	1142	190.39	-533	1035.4	214.07	-456.9	899.89	217.6	-421.92	801.73	175.89	-472.34	788.05	228.23	-420.61	754.75	224.5	-503.02	1345	-217.98	-546.36	895.59	-280.43	-599.81	784.57	-291.54	-561.25	733.01	-286.04	-499.33	731.67	143.27	-478.61	545.11	116.02	-423.47	652.53	103.44	-489.88	638.37	127.78	-483.31	452.43	102.5	-484.17	736.66	-198.84	-436	561.59	-155.37	-392.2	667.3	-147.47	-460.79	644.93	-176.4	-419.12	454.34	-139.3	-393.27	358.35	-55.329	-418.53	172.59	-49.682	-425.12	265.47	-124.28	-404.67	263.47	-55.979	-450.68	73.601	-13.921	-318.7	37.92	-56.893	-273.17	30.284	-84.717	-408.56	1582.7	-84.743	-399.99	1587.4	-12.138	-598.54	1130.9	-33.793	-359.4	23.97	-132.62	-629.11	972.23	-83.795	-630.75	971.41	32.122	-465.5	61.081	-94.703	-567.67	1542.1	30.676	-537.77	344.05	36.154	-542.67	1138.2	-257.76	-577.35	1545	-96.209	-624.1	313.69	105.67	-697.19	250.05	36.031	-743.65	45.291	54.333	-618.01	297.53	35.948	-515.92	29.193	-40.898	-545.45	1013.7	130.97	-856.44	243.25	35.848	-758.02	76.302	25.658	-576.24	1022.5	-263.58	-592.68	1012.5	-194.65	-546.41	775.43	-244.06	-810.56	221.33	84.534	-805.6	88.516	93.045	-781.34	215.69	8.531
280	1.4	-560.18	1414.7	-44.123	-434.26	1338.9	-49.261	-355.52	1114.1	-40.331	-600.64	1312.1	56.33	-405.84	934.86	-159.83	-412.04	937.26	103.37	-481.48	1352.8	124.7	-505.72	1142.6	190.06	-528.64	1036.1	213.53	-453.63	900.09	217.48	-419.4	801.53	175.94	-469.96	788.39	228.31	-418.57	754.57	224.58	-497.58	1346	-218.19	-537.98	896.27	-280.43	-590.59	784.95	-291.97	-551.78	733.61	-285.85	-492.41	732.97	143.21	-469.58	546.62	116.06	-415.44	654.57	103.91	-481.94	639.8	127.83	-472.48	454.33	102.47	-479.82	736.94	-198.98	-432.84	561.55	-155.56	-388.34	666.95	-147.67	-457.07	645.06	-176.57	-416.75	454.09	-139.45	-391.59	358	-55.425	-417.91	172.37	-49.697	-423.82	265.23	-124.37	-403.49	263.18	-56.034	-450.64	73.578	-13.915	-318.74	37.928	-56.932	-273.13	30.231	-84.874	-402.89	1583.5	-84.834	-394.29	1588.1	-12.222	-593.07	1131.8	-34.278	-359.43	23.946	-132.66	-623.73	973	-83.902	-625.07	972.34	31.992	-465.46	61.078	-94.708	-562.02	1543	30.582	-526.42	345.84	36	-536.05	1138.9	-258.12	-571.73	1546	-96.3	-612.53	315.15	105.47	-685.43	251.33	35.793	-729.2	47.038	55.583	-606.4	299.07	35.741	-515.92	29.208	-40.869	-540.96	1014.4	130.56	-844.88	243.32	35.378	-744.06	77.752	26.646	-568.82	1023.1	-264.09	-585.77	1013	-195.29	-537.73	776.19	-243.77	-798.66	222.22	84.247	-791.73	90.034	93.878	-769.35	216.58	8.2346
281	1.405	-554.74	1415.6	-44.299	-428.88	1339.8	-49.483	-350.16	1114.9	-40.575	-595.33	1312.9	55.888	-400.94	935.54	-160.62	-406.7	938.31	103.42	-476.27	1353.5	124.56	-501.17	1143.3	189.73	-524.29	1036.8	213	-450.35	900.31	217.36	-416.89	801.36	176	-467.58	788.76	228.4	-416.52	754.41	224.68	-492.16	1347	-218.39	-529.56	897	-280.42	-581.28	785.36	-292.38	-542.2	734.27	-285.65	-485.56	734.29	143.17	-460.62	548.18	116.08	-407.48	656.66	104.4	-474.06	641.26	127.88	-461.73	456.29	102.42	-475.49	737.22	-199.1	-429.74	561.51	-155.73	-384.51	666.58	-147.85	-453.38	645.17	-176.71	-414.44	453.85	-139.58	-389.95	357.66	-55.5	-417.31	172.16	-49.703	-422.55	264.99	-124.46	-402.34	262.89	-56.075	-450.61	73.555	-13.909	-318.77	37.935	-56.967	-273.09	30.181	-85.016	-397.24	1584.3	-84.907	-388.61	1588.8	-12.287	-587.61	1132.6	-34.764	-359.46	23.915	-132.71	-618.37	973.76	-83.975	-619.39	973.28	31.895	-465.42	61.075	-94.709	-556.38	1543.9	30.509	-515.05	347.63	35.818	-529.46	1139.7	-258.48	-566.13	1547	-96.367	-600.91	316.5	105.24	-673.53	252.41	35.517	-714.38	48.617	56.961	-594.72	300.5	35.502	-515.92	29.229	-40.838	-536.49	1015.1	130.18	-833.16	242.98	34.794	-729.74	78.952	27.709	-561.42	1023.6	-264.62	-578.9	1013.6	-195.95	-528.96	776.99	-243.46	-786.59	222.8	83.894	-777.57	91.297	94.752	-757.16	217.12	7.8839
282	1.41	-549.3	1416.5	-44.459	-423.5	1340.6	-49.694	-344.8	1115.8	-40.819	-590.04	1313.7	55.459	-396.03	936.22	-161.44	-401.36	939.35	103.48	-471.06	1354.2	124.43	-496.6	1143.9	189.39	-519.94	1037.5	212.48	-447.07	900.54	217.24	-414.39	801.22	176.06	-465.2	789.14	228.5	-414.46	754.29	224.78	-486.77	1348.1	-218.58	-521.1	897.78	-280.4	-571.88	785.79	-292.77	-532.51	734.98	-285.44	-478.77	735.63	143.15	-451.7	549.79	116.08	-399.57	658.81	104.91	-466.23	642.75	127.92	-451.07	458.31	102.33	-471.17	737.49	-199.19	-426.67	561.47	-155.87	-380.71	666.2	-148.02	-449.72	645.29	-176.82	-412.18	453.61	-139.69	-388.37	357.33	-55.554	-416.73	171.96	-49.699	-421.3	264.76	-124.54	-401.23	262.61	-56.104	-450.58	73.532	-13.901	-318.8	37.939	-56.999	-273.04	30.133	-85.142	-391.6	1585.1	-84.963	-382.95	1589.6	-12.336	-582.15	1133.5	-35.249	-359.49	23.878	-132.77	-613	974.52	-84.013	-613.71	974.22	31.826	-465.39	61.073	-94.705	-550.76	1544.8	30.454	-503.65	349.4	35.616	-522.9	1140.5	-258.83	-560.55	1548	-96.413	-589.26	317.73	104.97	-661.49	253.27	35.212	-699.23	50.012	58.457	-582.95	301.83	35.242	-515.92	29.255	-40.804	-532.05	1015.8	129.8	-821.28	242.25	34.115	-715.09	79.905	28.842	-554.02	1024.2	-265.16	-572.07	1014.1	-196.65	-520.11	777.84	-243.15	-774.37	223.05	83.486	-763.16	92.305	95.659	-744.76	217.33	7.4898
283	1.415	-543.88	1417.4	-44.604	-418.14	1341.4	-49.895	-339.45	1116.6	-41.066	-584.74	1314.4	55.043	-391.13	936.9	-162.28	-396.02	940.39	103.53	-465.85	1354.9	124.3	-492.01	1144.6	189.03	-515.59	1038.2	211.97	-443.79	900.79	217.12	-411.88	801.09	176.13	-462.81	789.55	228.6	-412.4	754.2	224.89	-481.38	1349.1	-218.75	-512.61	898.59	-280.37	-562.39	786.25	-293.13	-522.71	735.75	-285.22	-472.04	736.99	143.15	-442.82	551.45	116.06	-391.71	660.99	105.44	-458.43	644.27	127.96	-440.49	460.37	102.23	-466.87	737.75	-199.26	-423.65	561.41	-155.99	-376.94	665.8	-148.16	-446.1	645.4	-176.9	-409.97	453.38	-139.77	-386.83	357	-55.588	-416.17	171.76	-49.686	-420.09	264.54	-124.61	-400.14	262.33	-56.118	-450.53	73.508	-13.889	-318.81	37.943	-57.026	-272.99	30.088	-85.252	-385.99	1585.9	-85.005	-377.3	1590.3	-12.369	-576.71	1134.4	-35.731	-359.51	23.835	-132.84	-607.62	975.27	-84.018	-608.03	975.15	31.784	-465.35	61.074	-94.692	-545.16	1545.7	30.417	-492.2	351.16	35.402	-516.37	1141.3	-259.18	-554.98	1549	-96.439	-577.58	318.86	104.68	-649.33	253.93	34.888	-683.79	51.216	60.052	-571.11	303.04	34.969	-515.92	29.285	-40.765	-527.65	1016.5	129.44	-809.23	241.12	33.361	-700.15	80.614	30.038	-546.64	1024.8	-265.72	-565.27	1014.7	-197.38	-511.18	778.74	-242.82	-761.98	222.99	83.037	-748.51	93.059	96.591	-732.17	217.21	7.0636
284	1.42	-538.47	1418.2	-44.734	-412.78	1342.2	-50.086	-334.09	1117.5	-41.316	-579.45	1315.2	54.642	-386.22	937.59	-163.13	-390.65	941.42	103.59	-460.65	1355.5	124.17	-487.39	1145.2	188.67	-511.24	1038.9	211.47	-440.5	901.06	216.99	-409.38	800.99	176.21	-460.41	789.98	228.71	-410.33	754.14	225.02	-476.02	1350.2	-218.92	-504.08	899.44	-280.32	-552.82	786.74	-293.46	-512.81	736.56	-284.98	-465.37	738.35	143.17	-433.97	553.15	116.01	-383.9	663.22	105.97	-450.65	645.81	128	-430.01	462.46	102.1	-462.59	737.99	-199.3	-420.67	561.35	-156.07	-373.2	665.37	-148.3	-442.52	645.49	-176.95	-407.81	453.15	-139.82	-385.32	356.68	-55.601	-415.61	171.56	-49.664	-418.9	264.32	-124.67	-399.07	262.06	-56.119	-450.49	73.483	-13.874	-318.82	37.947	-57.049	-272.93	30.048	-85.347	-380.4	1586.7	-85.033	-371.67	1591	-12.388	-571.27	1135.2	-36.209	-359.54	23.786	-132.91	-602.23	976	-83.989	-602.36	976.08	31.765	-465.32	61.077	-94.67	-539.56	1546.5	30.397	-480.72	352.88	35.183	-509.87	1142.2	-259.53	-549.43	1550	-96.447	-565.86	319.87	104.37	-637.03	254.37	34.555	-668.09	52.228	61.726	-559.19	304.14	34.694	-515.92	29.32	-40.722	-523.29	1017.1	129.06	-797.02	239.61	32.554	-684.93	81.09	31.286	-539.28	1025.5	-266.3	-558.5	1015.3	-198.14	-502.16	779.68	-242.49	-749.44	222.61	82.558	-733.65	93.562	97.54	-719.4	216.77	6.6166
285	1.425	-533.06	1419.1	-44.852	-407.42	1343.1	-50.266	-328.73	1118.3	-41.573	-574.16	1316	54.256	-381.31	938.29	-163.99	-385.25	942.45	103.63	-455.43	1356.2	124.04	-482.76	1145.8	188.29	-506.9	1039.5	210.97	-437.2	901.34	216.85	-406.87	800.91	176.29	-457.99	790.43	228.82	-408.25	754.11	225.15	-470.66	1351.3	-219.07	-495.53	900.33	-280.27	-543.19	787.24	-293.75	-502.82	737.44	-284.73	-458.74	739.71	143.21	-425.14	554.88	115.94	-376.13	665.48	106.51	-442.88	647.35	128.03	-419.61	464.59	101.96	-458.34	738.22	-199.31	-417.74	561.28	-156.11	-369.49	664.93	-148.42	-438.97	645.57	-176.97	-405.69	452.92	-139.85	-383.84	356.36	-55.595	-415.07	171.37	-49.632	-417.76	264.1	-124.71	-398.02	261.8	-56.107	-450.43	73.457	-13.854	-318.82	37.95	-57.068	-272.88	30.011	-85.429	-374.82	1587.5	-85.049	-366.06	1591.7	-12.394	-565.84	1136	-36.681	-359.57	23.733	-132.98	-596.84	976.72	-83.932	-596.69	977	31.767	-465.29	61.084	-94.639	-533.98	1547.3	30.392	-469.2	354.57	34.968	-503.39	1143	-259.88	-543.89	1551	-96.438	-554.13	320.78	104.06	-624.62	254.61	34.22	-652.14	53.049	63.455	-547.21	305.11	34.424	-515.92	29.359	-40.673	-518.98	1017.9	128.67	-784.64	237.74	31.717	-669.45	81.346	32.572	-531.93	1026.2	-266.9	-551.78	1016	-198.94	-493.08	780.67	-242.15	-736.75	221.92	82.061	-718.57	93.819	98.5	-706.45	216.02	6.1601
286	1.43	-527.66	1419.9	-44.957	-402.06	1343.8	-50.437	-323.37	1119.2	-41.839	-568.86	1316.7	53.887	-376.39	938.99	-164.84	-379.82	943.5	103.66	-450.22	1356.8	123.92	-478.1	1146.4	187.91	-502.55	1040.2	210.47	-433.9	901.63	216.72	-404.35	800.85	176.38	-455.56	790.91	228.94	-406.16	754.1	225.29	-465.31	1352.3	-219.22	-486.96	901.25	-280.21	-533.48	787.77	-294.01	-492.74	738.36	-284.47	-452.16	741.06	143.26	-416.33	556.64	115.86	-368.4	667.76	107.05	-435.11	648.9	128.06	-409.32	466.73	101.8	-454.12	738.42	-199.3	-414.86	561.19	-156.13	-365.8	664.46	-148.54	-435.46	645.64	-176.95	-403.62	452.7	-139.85	-382.38	356.05	-55.571	-414.53	171.19	-49.593	-416.64	263.89	-124.75	-396.99	261.54	-56.083	-450.37	73.431	-13.829	-318.81	37.955	-57.083	-272.82	29.978	-85.498	-369.26	1588.3	-85.054	-360.46	1592.4	-12.39	-560.42	1136.8	-37.146	-359.6	23.675	-133.06	-591.43	977.42	-83.851	-591.03	977.9	31.785	-465.26	61.095	-94.598	-528.42	1548.1	30.402	-457.65	356.21	34.761	-496.93	1143.9	-260.25	-538.36	1551.9	-96.414	-542.38	321.59	103.74	-612.09	254.65	33.893	-635.97	53.685	65.215	-535.15	305.95	34.169	-515.92	29.401	-40.617	-514.72	1018.6	128.25	-772.1	235.51	30.871	-653.72	81.398	33.883	-524.6	1026.9	-267.52	-545.1	1016.6	-199.78	-483.92	781.7	-241.81	-723.91	220.94	81.558	-703.3	93.835	99.463	-693.34	214.98	5.7052
